<svg width="32" height="32" viewBox="0 0 32 32" fill="none" xmlns="http://www.w3.org/2000/svg">
<g clip-path="url(#clip0_3_29640)">
<path fill-rule="evenodd" clip-rule="evenodd" d="M0 16C0 7.16216 7.16216 0 15.997 0C24.8318 0 31.994 7.16216 31.994 16C31.994 24.8378 24.8318 32 15.997 32C7.16216 32 0 24.8348 0 16ZM10.0062 10.5225C8.33648 10.5225 7.56771 12.2462 7.56771 15.7988C7.56771 19.1922 8.44159 20.8378 10.5377 20.8378C11.7299 20.8378 12.844 20.2012 13.826 18.9009L14.859 19.5916C13.4806 21.5285 11.7299 22.5075 9.60975 22.5075C6.0572 22.5075 3.30044 19.7778 3.30044 16.012C3.30044 12.2192 6.00615 9.48949 9.84999 9.48949C12.6608 9.48949 14.5167 11.027 14.5167 12.7237C14.5167 13.8108 13.7209 14.6066 12.7149 14.6066C11.6818 14.6066 10.9131 13.8649 10.9131 12.8559C10.9131 12.2462 11.1773 11.7417 11.7089 11.3694C11.1983 10.8138 10.6668 10.5225 10.0062 10.5225ZM16.2887 12.4324C15.8383 11.3453 15.4389 10.8408 14.538 10.8408V9.85886H21.6161V10.8408H21.511C20.6101 10.8408 20.1596 11.1321 20.1596 11.7147C20.1596 11.9009 20.2137 12.1381 20.3458 12.4565L22.8893 18.7688L25.1956 13.2012C25.3818 12.7237 25.4869 12.3513 25.4869 12.0871C25.4869 11.2132 24.9554 10.8679 23.7902 10.8408V9.85886H28.6941V10.8408C27.7932 10.9459 27.3158 11.5315 26.8113 12.7237L22.7272 22.5075H20.3938L16.2887 12.4324Z" fill="#333F48"/>
</g>
<defs>
<clipPath id="clip0_3_29640">
<rect width="32" height="32" rx="8" fill="white"/>
</clipPath>
</defs>
</svg>
